{"title":"The Secret Life of Walter Mitty 2013 English Movies PDVDRip XViD","uid":9457193,"size":946454666,"categoryP":"video","categoryS":"movies","magnet":"?xt=urn:btih:dad49516380fde4b3f051acc361ac84df877e5d2&amp;dn=The+Secret+Life+of+Walter+Mitty+2013+English+Movies+PDVDRip+XViD&amp;tr=udp%3A%2F%2Ftracker.openbittorrent.com%3A80&amp;tr=udp%3A%2F%2Fopen.demonii.com%3A1337&amp;tr=udp%3A%2F%2Ftracker.coppersurfer.tk%3A6969&amp;tr=udp%3A%2F%2Fexodus.desync.com%3A6969","seeders":2,"leechers":0,"uploader":"basicssom","files":2,"time":1389290957,"description":" &lt;a href=&quot;http://s5.postimg.org/hgeuxszk7/logo.png&quot; rel=&quot;nofollow&quot; target=&quot;_NEW&quot;&gt;http://s5.postimg.org/hgeuxszk7/logo.png&lt;/a&gt;\n\nThe Secret Life of Walter Mitty 2013 English Movies PDVDRip XViD +Sample â˜»rDXâ˜»\n\nPlease check SCREEN SHOTS first :\n &lt;a href=&quot;\nhttp://moviesreview.co.nr/2014/1/TheSecretLifeofWalterMitty/1.html&quot; rel=&quot;nofollow&quot; target=&quot;_NEW&quot;&gt;\nhttp://moviesreview.co.nr/2014/1/TheSecretLifeofWalterMitty/1.html&lt;/a&gt;\n &lt;a href=&quot;\nhttp://moviesreview.co.nr/2014/1/TheSecretLifeofWalterMitty/2.html&quot; rel=&quot;nofollow&quot; target=&quot;_NEW&quot;&gt;\nhttp://moviesreview.co.nr/2014/1/TheSecretLifeofWalterMitty/2.html&lt;/a&gt;\n &lt;a href=&quot;\nhttp://moviesreview.co.nr/2014/1/TheSecretLifeofWalterMitty/3.html&quot; rel=&quot;nofollow&quot; target=&quot;_NEW&quot;&gt;\nhttp://moviesreview.co.nr/2014/1/TheSecretLifeofWalterMitty/3.html&lt;/a&gt;\n &lt;a href=&quot;\nhttp://moviesreview.co.nr/2014/1/TheSecretLifeofWalterMitty/4.html&quot; rel=&quot;nofollow&quot; target=&quot;_NEW&quot;&gt;\nhttp://moviesreview.co.nr/2014/1/TheSecretLifeofWalterMitty/4.html&lt;/a&gt;\n &lt;a href=&quot;\nhttp://moviesreview.co.nr/2014/1/TheSecretLifeofWalterMitty/5.html&quot; rel=&quot;nofollow&quot; target=&quot;_NEW&quot;&gt;\nhttp://moviesreview.co.nr/2014/1/TheSecretLifeofWalterMitty/5.html&lt;/a&gt;\n &lt;a href=&quot;\nhttp://moviesreview.co.nr/2014/1/TheSecretLifeofWalterMitty/6.html&quot; rel=&quot;nofollow&quot; target=&quot;_NEW&quot;&gt;\nhttp://moviesreview.co.nr/2014/1/TheSecretLifeofWalterMitty/6.html&lt;/a&gt;\n\nAll rDX torrents are Seeding From the 1Gbps Seedbox 24X7\n &lt;a href=&quot;\nhttp://istoreimg.com/upload/big/2014/01/09/52cebe93ad9de.jpg&quot; rel=&quot;nofollow&quot; target=&quot;_NEW&quot;&gt;\nhttp://istoreimg.com/upload/big/2014/01/09/52cebe93ad9de.jpg&lt;/a&gt;\n &lt;a href=&quot;\nhttp://istoreimg.com/upload/big/2014/01/09/52cebe9a48f5f.jpg&quot; rel=&quot;nofollow&quot; target=&quot;_NEW&quot;&gt;\nhttp://istoreimg.com/upload/big/2014/01/09/52cebe9a48f5f.jpg&lt;/a&gt;\n &lt;a href=&quot;\nhttp://istoreimg.com/upload/big/2014/01/09/52cebea1e4c20.jpg&quot; rel=&quot;nofollow&quot; target=&quot;_NEW&quot;&gt;\nhttp://istoreimg.com/upload/big/2014/01/09/52cebea1e4c20.jpg&lt;/a&gt;\n &lt;a href=&quot;\nhttp://istoreimg.com/upload/big/2014/01/09/52cebea491c96.jpg&quot; rel=&quot;nofollow&quot; target=&quot;_NEW&quot;&gt;\nhttp://istoreimg.com/upload/big/2014/01/09/52cebea491c96.jpg&lt;/a&gt;\n &lt;a href=&quot;\nhttp://istoreimg.com/upload/big/2014/01/09/52cebea813775.jpg&quot; rel=&quot;nofollow&quot; target=&quot;_NEW&quot;&gt;\nhttp://istoreimg.com/upload/big/2014/01/09/52cebea813775.jpg&lt;/a&gt;\n\nFormat                                   : AVI\nFormat/Info                              : Audio Video Interleave\nFile size                                : 896 MiB\nDuration                                 : 1h 43mn\nOverall bit rate                         : 1 206 Kbps\nWriting library                          : MPlayer\n\nVideo\nID                                       : 0\nFormat                                   : xvid\nCodec ID                                 : xvid\nDuration                                 : 1h 43mn\nBit rate                                 : 1 064 Kbps\nWidth                                    : 720 pixels\nHeight                                   : 380 pixels\nDisplay aspect ratio                     : 1.895\nFrame rate                               : 29.970 fps\nBits/(Pixel*Frame)                       : 0.130\nStream size                              : 791 MiB (88%)\n\nAudio\nID                                       : 1\nFormat                                   : MPEG Audio\nFormat version                           : Version 1\nFormat profile                           : Layer 3\nMode                                     : Joint stereo\nMode extension                           : MS Stereo\nCodec ID                                 : 55\nCodec ID/Hint                            : MP3\nDuration                                 : 1h 43mn\nBit rate mode                            : Constant\nBit rate                                 : 128 Kbps\nChannel(s)                               : 2 channels\nSampling rate                            : 44.1 KHz\nCompression mode                         : Lossy\nStream size                              : 95.1 MiB (11%)\nAlignment                                : Aligned on interleaves\nInterleave, duration                     : 26 ms (0.78 video frame)\nInterleave, preload duration             : 522 ms","torrent":{"xt":"urn:btih:dad49516380fde4b3f051acc361ac84df877e5d2","amp;dn":"The+Secret+Life+of+Walter+Mitty+2013+English+Movies+PDVDRip+XViD","amp;tr":["udp%3A%2F%2Ftracker.openbittorrent.com%3A80","udp%3A%2F%2Fopen.demonii.com%3A1337","udp%3A%2F%2Ftracker.coppersurfer.tk%3A6969","udp%3A%2F%2Fexodus.desync.com%3A6969"],"infoHash":"dad49516380fde4b3f051acc361ac84df877e5d2","infoHashBuffer":{"type":"Buffer","data":[218,212,149,22,56,15,222,75,63,5,26,204,54,26,200,77,248,119,229,210]},"announce":[],"urlList":[]}}